# xmcd
#
# Track frame offsets: 
#        150
#        14882
#        28414
#        48981
#        66032
#        93356
#        116483
#        137589
#        154013
#        187449
#        198533
#
# Disc length: 2929 seconds
#
# Revision: 0
# Processed by: cddbd v1.5.2PL0 Copyright (c) Steve Scherf et al.
# Submitted via: ExactAudioCopy v1.2
#
DISCID=a20b6f0b
DTITLE=Big George Jackson - Harmonica Blues
DYEAR=2017
DGENRE=Blues
TTITLE0=The Daddy
TTITLE1=Ela May
TTITLE2=I'm Sorry
TTITLE3=Biscuits 'n' Molasses
TTITLE4=St Paul Woman #2
TTITLE5=Fat's Jump
TTITLE6=Ooh Wee Baby
TTITLE7=What You Got
TTITLE8=Fee Fi Fo Fam
TTITLE9=Friday Evening
TTITLE10=Amtrak
EXTD=
EXTT0=
EXTT1=
EXTT2=
EXTT3=
EXTT4=
EXTT5=
EXTT6=
EXTT7=
EXTT8=
EXTT9=
EXTT10=
PLAYORDER=
